<svg width="20" height="15" viewBox="0 0 20 15" fill="none" xmlns="http://www.w3.org/2000/svg">
<g id="email-icon" clip-path="url(#clip0_1_285)">
<path id="Vector" d="M20 13.125V1.875C20 0.8375 19.2117 0 18.2353 0H1.75293C0.776455 0 -0.0117798 0.8375 -0.0117798 1.875V13.125C-0.0117798 14.1625 0.776455 15 1.75293 15H18.2353C19.2117 15 20 14.1625 20 13.125ZM18.4588 1.7375C18.847 2.15 18.6353 2.575 18.4235 2.7875L13.647 7.4375L18.2353 12.5125C18.3765 12.6875 18.4706 12.9625 18.3059 13.15C18.1529 13.35 17.8 13.3375 17.647 13.2125L12.5059 8.55L9.98822 10.9875L7.48234 8.55L2.34116 13.2125C2.18822 13.3375 1.83528 13.35 1.68234 13.15C1.51763 12.9625 1.61175 12.6875 1.75293 12.5125L6.34116 7.4375L1.56469 2.7875C1.35293 2.575 1.14116 2.15 1.5294 1.7375C1.91763 1.325 2.31763 1.525 2.64704 1.825L9.98822 8.125L17.3412 1.825C17.6706 1.525 18.0706 1.325 18.4588 1.7375Z" fill="white"/>
</g>
<defs>
<clipPath id="clip0_1_285">
<rect width="20" height="15" fill="white"/>
</clipPath>
</defs>
</svg>
