<svg width="32" height="18" viewBox="0 0 32 18" fill="none" xmlns="http://www.w3.org/2000/svg">
<g id="message-icon" clip-path="url(#clip0_1_269)">
<path id="Vector" d="M29.3333 0.333252H12C10.5333 0.333252 9.33333 1.53325 9.33333 2.99992V14.9999C9.33333 15.7072 9.61429 16.3854 10.1144 16.8855C10.6145 17.3856 11.2928 17.6666 12 17.6666H29.3333C30.8133 17.6666 32 16.4799 32 14.9999V2.99992C32 2.29267 31.719 1.6144 31.219 1.1143C30.7189 0.614203 30.0406 0.333252 29.3333 0.333252ZM29.3333 14.9999H12V5.22659L20.6667 9.66659L29.3333 5.22659V14.9999ZM20.6667 7.41325L12 2.99992H29.3333L20.6667 7.41325ZM6.66667 14.9999C6.66667 15.2266 6.70667 15.4399 6.73333 15.6666H1.33333C0.597333 15.6666 0 15.0666 0 14.3333C0 13.5999 0.597333 12.9999 1.33333 12.9999H6.66667V14.9999ZM4 2.33325H6.73333C6.70667 2.55992 6.66667 2.77325 6.66667 2.99992V4.99992H4C3.26667 4.99992 2.66667 4.39992 2.66667 3.66659C2.66667 2.93325 3.26667 2.33325 4 2.33325ZM1.33333 8.99992C1.33333 8.26659 1.93333 7.66659 2.66667 7.66659H6.66667V10.3333H2.66667C1.93333 10.3333 1.33333 9.73325 1.33333 8.99992Z" fill="white"/>
</g>
<defs>
<clipPath id="clip0_1_269">
<rect width="32" height="18" fill="white"/>
</clipPath>
</defs>
</svg>
