<svg width="48" height="50" viewBox="0 0 48 50" fill="none" xmlns="http://www.w3.org/2000/svg">
<path id="Vector" d="M14.1972 9.6084C13.2969 9.6089 12.4151 9.86411 11.6541 10.3445C10.893 10.8248 10.2838 11.5107 9.89697 12.3226L5.55202 21.4205C4.87256 22.8491 5.03348 24.5276 5.97221 25.7954L21.3852 46.6965C21.6879 47.106 22.0826 47.4388 22.5375 47.6681C22.9925 47.8974 23.495 48.0169 24.0047 48.0169C24.5143 48.0169 25.0168 47.8974 25.4718 47.6681C25.9267 47.4388 26.3215 47.106 26.6242 46.6965L42.0371 25.7954C42.9758 24.5276 43.1368 22.8491 42.4573 21.4205L38.1124 12.3226C37.7237 11.5121 37.114 10.8276 36.3533 10.3475C35.5927 9.8674 34.7119 9.61123 33.8121 9.6084H14.1972ZM34.7598 11.5637L30.0125 21.5187L25.3993 11.3941H33.821C34.1518 11.3941 34.4647 11.4655 34.7687 11.5637H34.7598ZM19.1769 24.5276H28.8324L24.0047 42.777L19.1769 24.5276ZM19.4094 22.7419L24.0047 12.6619L28.5999 22.7419H19.4004H19.4094ZM22.6189 11.3941L18.0058 21.5187L13.2585 11.5637C13.5625 11.4566 13.8754 11.3941 14.2062 11.3941H22.6279H22.6189ZM11.5152 13.0904C11.5867 12.9297 11.7029 12.8047 11.8012 12.6619L16.6111 22.7419H6.99139C7.0361 22.5544 7.0808 22.3669 7.1702 22.1884L11.5152 13.0904ZM7.42053 24.7329C7.37582 24.6704 7.349 24.5901 7.3043 24.5186H17.3352L22.9408 45.7233C22.6279 45.393 22.8961 45.7233 7.41159 24.7329H7.42053ZM25.0864 45.7233L30.692 24.5186H40.7229C40.6782 24.5901 40.6603 24.6615 40.6067 24.7329C25.1669 45.6698 25.3904 45.393 25.0775 45.7233H25.0864ZM40.857 22.1794C40.9375 22.358 40.9911 22.5455 41.0358 22.733H31.4251L36.2349 12.6529C36.3333 12.7958 36.4495 12.9208 36.521 13.0815L40.866 22.1794H40.857ZM1.11766 42.4377C0.447141 42.6431 -0.00881107 43.2591 0.000129169 43.9555C0.00906941 44.652 0.456081 45.268 1.1266 45.4734C2.76266 45.9733 4.03218 47.2412 4.53283 48.875C4.73845 49.5447 5.34639 50 6.05267 50C6.75895 50 7.36688 49.5536 7.57251 48.875C7.81712 48.0724 8.25581 47.3422 8.84985 46.749C9.4439 46.1557 10.175 45.7176 10.9787 45.4734C11.3052 45.3753 11.5911 45.1745 11.7941 44.9011C11.9971 44.6276 12.1062 44.296 12.1052 43.9555C12.1052 43.2502 11.6582 42.6431 10.9787 42.4288C10.175 42.1845 9.4439 41.7464 8.84985 41.1532C8.25581 40.5599 7.81712 39.8298 7.57251 39.0271C7.34006 38.2504 6.56226 37.7772 5.76658 37.9289C5.17653 38.0361 4.70269 38.4557 4.53283 39.0271C4.28822 39.8298 3.84953 40.5599 3.25549 41.1532C2.66144 41.7464 1.9303 42.1845 1.1266 42.4288L1.11766 42.4377ZM6.04373 40.0985C6.39147 40.9707 6.91317 41.7632 7.57711 42.4278C8.24105 43.0924 9.03336 43.6152 9.90591 43.9645C9.03256 44.3118 8.23903 44.8328 7.57355 45.4958C6.90808 46.1589 6.38455 46.9501 6.03479 47.8215C5.68956 46.9489 5.16865 46.1563 4.50432 45.4929C3.83999 44.8295 3.04638 44.3092 2.17261 43.9645C3.04677 43.6179 3.84051 43.0961 4.50479 42.4311C5.16907 41.7662 5.68979 40.9723 6.03479 40.0985H6.04373ZM45.3182 32.9112C44.755 32.7148 44.1381 32.8398 43.7 33.2505C43.0861 33.8218 42.3412 34.2337 41.5305 34.4501C40.7199 34.6665 39.8685 34.6807 39.0511 34.4916C38.3627 34.3308 37.6653 34.6344 37.3167 35.2505C36.968 35.8576 37.0574 36.6165 37.5312 37.1254C38.1033 37.7384 38.5158 38.4824 38.7324 39.292C38.9491 40.1015 38.9634 40.9518 38.7739 41.7681C38.613 42.4556 38.917 43.152 39.5249 43.5002C39.7752 43.6431 40.0524 43.7145 40.3206 43.7145C40.714 43.7145 41.0984 43.5716 41.4024 43.2859C42.0145 42.7119 42.7594 42.2981 43.5706 42.0816C44.3818 41.865 45.234 41.8524 46.0513 42.0449C46.7307 42.2056 47.437 41.902 47.7857 41.2949C48.1344 40.6878 48.0539 39.9289 47.5711 39.42C46.9973 38.8081 46.5836 38.0641 46.3668 37.2542C46.15 36.4443 46.1369 35.5935 46.3284 34.7773C46.5072 33.9916 46.0692 33.1969 45.3093 32.9202L45.3182 32.9112ZM40.6246 41.6074C40.9017 39.7325 40.3921 37.8218 39.212 36.3308C41.0895 36.6076 43.0027 36.0986 44.4957 34.9201C44.2185 36.804 44.7281 38.7057 45.9082 40.1967C44.0219 39.92 42.1176 40.4289 40.6246 41.6074ZM10.5228 1.44794C10.4513 0.644391 9.78075 0.0194101 8.97613 0.00155351C8.38607 -0.0252314 7.83178 0.296187 7.53675 0.822957C7.13152 1.55696 6.55186 2.18024 5.84877 2.63796C5.14568 3.09569 4.34071 3.37382 3.5047 3.44788C3.16574 3.4788 2.84564 3.61745 2.5914 3.84346C2.33716 4.06948 2.16218 4.37094 2.09216 4.70359C2.02214 5.03624 2.06077 5.38255 2.20237 5.69166C2.34397 6.00077 2.58108 6.25639 2.87889 6.421C4.3719 7.2424 5.35533 8.75128 5.50732 10.4477C5.5699 11.1441 6.07949 11.7155 6.76789 11.8583C7.10061 11.9305 7.44777 11.8929 7.75728 11.7512C8.06678 11.6095 8.32193 11.3714 8.48441 11.0726C8.88964 10.3386 9.4693 9.71535 10.1724 9.25763C10.8755 8.79991 11.6805 8.52178 12.5165 8.44772C13.2138 8.38522 13.786 7.88524 13.929 7.19776C14.0721 6.51028 13.7592 5.8228 13.1423 5.4746C12.4073 5.06991 11.7832 4.49102 11.3248 3.78887C10.8665 3.08672 10.588 2.28283 10.5138 1.44794H10.5228ZM7.22384 9.73339C7.06539 8.80808 6.71866 7.92503 6.20507 7.13879C5.69149 6.35254 5.02195 5.6798 4.2378 5.16211C6.11525 4.84069 7.7692 3.76037 8.8152 2.18006C9.13705 4.055 10.2188 5.70673 11.8012 6.75134C9.92379 7.07276 8.26985 8.15309 7.22384 9.73339ZM43.8878 6.3585C43.336 6.19607 42.8324 5.90122 42.421 5.49969C42.0096 5.09817 41.7028 4.60217 41.5275 4.055C41.4254 3.72738 41.2053 3.44923 40.9097 3.2744C40.614 3.09957 40.264 3.04049 39.9272 3.1086C39.4087 3.20681 38.9974 3.5818 38.8455 4.09071C38.6847 4.64126 38.3911 5.14403 37.9905 5.55496C37.59 5.9659 37.0946 6.27246 36.5478 6.44778C35.9578 6.63528 35.5644 7.1799 35.5733 7.80488C35.5733 8.42093 35.9846 8.95663 36.5836 9.1352C37.71 9.46555 38.5862 10.3227 38.9438 11.4387C39.1315 12.019 39.668 12.4119 40.2759 12.4119H40.2938C40.9107 12.4119 41.4471 12.0012 41.6259 11.403C41.7871 10.8512 42.0819 10.3476 42.4841 9.93651C42.8864 9.52544 43.3838 9.21957 43.9325 9.04592C44.5225 8.85842 44.9159 8.3138 44.9069 7.69774C44.898 7.08169 44.4957 6.54599 43.8967 6.36743L43.8878 6.3585ZM40.258 9.99231C39.7459 9.03414 38.9496 8.25761 37.9783 7.76917C38.9358 7.25525 39.7127 6.46069 40.2044 5.49245C40.7164 6.45063 41.5128 7.22716 42.4841 7.7156C41.5247 8.22699 40.7471 9.02224 40.258 9.99231Z" fill="#214C23"/>
</svg>
